<svg width="3099" height="488" viewBox="0 0 3099 488" fill="none" xmlns="http://www.w3.org/2000/svg">
<path opacity="0.9" d="M714 200C769.228 200 814 155.228 814 100C814 44.7715 769.228 0 714 0C658.772 0 614 44.7715 614 100C614 155.228 658.772 200 714 200Z" fill="#84CC16"/>
<path d="M514 200C569.228 200 614 155.228 614 100C614 44.7715 569.228 0 514 0C458.772 0 414 44.7715 414 100C414 155.228 458.772 200 514 200Z" fill="#8B5CF6"/>
<path d="M314 200C369.228 200 414 155.228 414 100C414 44.7715 369.228 0 314 0C258.772 0 214 44.7715 214 100C214 155.228 258.772 200 314 200Z" fill="#00D4FF"/>
<path d="M4.47575e-05 100H614.22" stroke="white" stroke-width="17.212"/>
<path d="M82.5368 266.065C98.7478 266.065 112.689 269.261 124.361 275.653C136.033 282.045 144.972 291.447 151.179 303.86C157.385 316.18 160.488 331.048 160.488 348.463C160.488 365.878 157.385 380.792 151.179 393.205C144.972 405.526 136.033 414.928 124.361 421.412C112.689 427.804 98.7478 431 82.5368 431H17.091C14.8677 431 13.154 430.629 11.9498 429.888C10.7455 429.147 9.8192 427.758 9.17076 425.72C8.61495 423.682 8.33705 420.718 8.33705 416.827C8.33705 412.936 8.61495 409.972 9.17076 407.934C9.8192 405.896 10.7455 404.507 11.9498 403.766C13.154 402.932 14.8677 402.515 17.091 402.515H30.5692V294.55H17.091C14.8677 294.55 13.154 294.18 11.9498 293.439C10.7455 292.698 9.8192 291.308 9.17076 289.27C8.61495 287.232 8.33705 284.268 8.33705 280.377C8.33705 276.487 8.61495 273.522 9.17076 271.484C9.8192 269.446 10.7455 268.057 11.9498 267.316C13.154 266.482 14.8677 266.065 17.091 266.065H82.5368ZM65.3069 401.126H79.7578C94.1161 401.126 104.954 396.679 112.272 387.786C119.59 378.801 123.249 365.693 123.249 348.463C123.249 331.233 119.59 318.172 112.272 309.279C104.954 300.386 94.1161 295.94 79.7578 295.94H65.3069V401.126ZM266.508 302.609C269.657 302.609 271.881 303.304 273.177 304.694C274.567 305.991 275.262 308.214 275.262 311.363V402.515H314.307C316.53 402.515 318.244 402.932 319.448 403.766C320.652 404.507 321.532 405.896 322.088 407.934C322.737 409.972 323.061 412.936 323.061 416.827C323.061 420.718 322.737 423.682 322.088 425.72C321.532 427.758 320.652 429.147 319.448 429.888C318.244 430.629 316.53 431 314.307 431H202.59C200.367 431 198.653 430.629 197.449 429.888C196.245 429.147 195.319 427.758 194.67 425.72C194.114 423.682 193.836 420.718 193.836 416.827C193.836 412.936 194.114 409.972 194.67 407.934C195.319 405.896 196.245 404.507 197.449 403.766C198.653 402.932 200.367 402.515 202.59 402.515H240.524V331.094H210.927C208.704 331.094 206.99 330.724 205.786 329.983C204.582 329.242 203.656 327.852 203.007 325.814C202.451 323.776 202.174 320.812 202.174 316.921C202.174 313.031 202.451 310.066 203.007 308.028C203.656 305.991 204.582 304.601 205.786 303.86C206.99 303.026 208.704 302.609 210.927 302.609H266.508ZM257.476 241.61C264.053 241.61 268.638 242.305 271.232 243.694C273.919 244.991 275.262 247.214 275.262 250.364V273.152C275.262 276.301 274.011 278.571 271.51 279.96C269.102 281.257 264.655 281.906 258.171 281.906C251.686 281.906 247.101 281.257 244.415 279.96C241.821 278.571 240.524 276.301 240.524 273.152V250.364C240.524 247.122 241.728 244.852 244.137 243.555C246.545 242.258 250.992 241.61 257.476 241.61ZM414.629 299.552C423.43 299.552 431.442 301.405 438.668 305.11C445.893 308.816 451.915 314.142 456.732 321.09V311.363C456.732 308.214 457.38 305.991 458.677 304.694C460.066 303.304 462.336 302.609 465.485 302.609H498C500.223 302.609 501.937 303.026 503.141 303.86C504.345 304.601 505.225 305.991 505.781 308.028C506.43 310.066 506.754 313.031 506.754 316.921C506.754 320.812 506.43 323.776 505.781 325.814C505.225 327.852 504.345 329.242 503.141 329.983C501.937 330.724 500.223 331.094 498 331.094H485.911V430.861C485.911 449.017 480.446 463.051 469.515 472.963C458.677 482.968 442.42 487.97 420.743 487.97C412.777 487.97 404.069 487.182 394.621 485.608C385.172 484.126 376.14 482.041 367.525 479.355C363.079 477.965 360.855 474.77 360.855 469.767C360.855 467.544 361.458 464.302 362.662 460.041C364.051 455.687 365.58 452.537 367.247 450.592C369.007 448.647 371.045 447.674 373.361 447.674C374.565 447.674 375.677 447.859 376.696 448.23C394.389 453.695 408.608 456.428 419.354 456.428C430.562 456.428 438.668 454.066 443.67 449.342C448.672 444.71 451.174 437.623 451.174 428.082V413.909C446.449 419.004 440.984 422.941 434.777 425.72C428.571 428.499 421.855 429.888 414.629 429.888C402.68 429.888 392.166 427.109 383.088 421.551C374.009 415.901 367.016 408.166 362.106 398.347C357.196 388.435 354.742 377.226 354.742 364.72C354.742 352.215 357.196 341.052 362.106 331.233C367.016 321.321 374.009 313.587 383.088 308.028C392.166 302.378 402.68 299.552 414.629 299.552ZM420.187 331.094C411.573 331.094 404.718 334.059 399.623 339.987C394.528 345.823 391.98 354.068 391.98 364.72C391.98 375.373 394.528 383.664 399.623 389.593C404.718 395.429 411.573 398.347 420.187 398.347C426.116 398.347 431.489 397.096 436.306 394.595C441.215 392.001 445.06 388.203 447.839 383.201C450.71 378.106 452.146 371.946 452.146 364.72C452.146 357.495 450.71 351.381 447.839 346.379C445.06 341.284 441.215 337.486 436.306 334.985C431.489 332.391 426.116 331.094 420.187 331.094ZM607.771 302.609C610.921 302.609 613.144 303.304 614.441 304.694C615.83 305.991 616.525 308.214 616.525 311.363V402.515H655.57C657.793 402.515 659.507 402.932 660.711 403.766C661.916 404.507 662.796 405.896 663.352 407.934C664 409.972 664.324 412.936 664.324 416.827C664.324 420.718 664 423.682 663.352 425.72C662.796 427.758 661.916 429.147 660.711 429.888C659.507 430.629 657.793 431 655.57 431H543.854C541.631 431 539.917 430.629 538.713 429.888C537.508 429.147 536.582 427.758 535.934 425.72C535.378 423.682 535.1 420.718 535.1 416.827C535.1 412.936 535.378 409.972 535.934 407.934C536.582 405.896 537.508 404.507 538.713 403.766C539.917 402.932 541.631 402.515 543.854 402.515H581.787V331.094H552.191C549.968 331.094 548.254 330.724 547.05 329.983C545.845 329.242 544.919 327.852 544.271 325.814C543.715 323.776 543.437 320.812 543.437 316.921C543.437 313.031 543.715 310.066 544.271 308.028C544.919 305.991 545.845 304.601 547.05 303.86C548.254 303.026 549.968 302.609 552.191 302.609H607.771ZM598.739 241.61C605.316 241.61 609.902 242.305 612.495 243.694C615.182 244.991 616.525 247.214 616.525 250.364V273.152C616.525 276.301 615.275 278.571 612.773 279.96C610.365 281.257 605.918 281.906 599.434 281.906C592.95 281.906 588.364 281.257 585.678 279.96C583.084 278.571 581.787 276.301 581.787 273.152V250.364C581.787 247.122 582.992 244.852 585.4 243.555C587.809 242.258 592.255 241.61 598.739 241.61ZM749.918 263.008C754.272 263.008 757.607 263.333 759.922 263.981C762.331 264.537 763.998 265.417 764.925 266.621C765.851 267.825 766.314 269.539 766.314 271.762V310.946H817.865C821.107 310.946 823.377 312.012 824.673 314.142C825.97 316.273 826.619 320.21 826.619 325.953C826.619 331.696 825.97 335.633 824.673 337.764C823.377 339.802 821.107 340.821 817.865 340.821H766.314V379.449C766.314 394.826 772.289 402.515 784.239 402.515C788.5 402.515 793.456 401.589 799.107 399.736C804.85 397.791 811.519 395.104 819.115 391.677C821.153 390.843 822.774 390.426 823.979 390.426C825.924 390.426 827.73 391.26 829.398 392.927C831.065 394.502 832.64 397.142 834.122 400.848C835.79 405.016 836.623 408.397 836.623 410.991C836.623 413.029 836.114 414.743 835.095 416.132C834.168 417.429 832.733 418.587 830.787 419.606C811.705 429.24 795.17 434.057 781.182 434.057C765.064 434.057 752.743 429.564 744.221 420.579C735.791 411.593 731.576 398.485 731.576 381.256V340.821H704.759C701.517 340.821 699.247 339.802 697.95 337.764C696.653 335.633 696.005 331.696 696.005 325.953C696.005 320.21 696.653 316.273 697.95 314.142C699.247 312.012 701.517 310.946 704.759 310.946H731.576V271.762C731.576 268.613 732.966 266.39 735.745 265.093C738.617 263.703 743.341 263.008 749.918 263.008ZM936.946 299.552C957.325 299.552 972.054 303.953 981.132 312.753C990.21 321.553 994.749 334.151 994.749 350.547V390.704C994.749 394.41 995.537 397.328 997.112 399.458C998.686 401.496 1000.96 402.515 1003.92 402.515H1008.23C1010.45 402.515 1012.16 402.932 1013.37 403.766C1014.57 404.507 1015.45 405.896 1016.01 407.934C1016.66 409.972 1016.98 412.936 1016.98 416.827C1016.98 420.718 1016.66 423.682 1016.01 425.72C1015.45 427.758 1014.57 429.147 1013.37 429.888C1012.16 430.629 1010.45 431 1008.23 431H992.665C986.922 431 981.827 429.842 977.381 427.526C973.027 425.118 969.692 421.366 967.376 416.271C960.058 421.922 952.323 426.322 944.171 429.472C936.019 432.528 927.636 434.057 919.021 434.057C908.554 434.057 899.522 432.297 891.926 428.777C884.33 425.164 878.494 420.069 874.418 413.492C870.435 406.823 868.443 398.995 868.443 390.009C868.443 377.041 873.028 366.99 882.199 359.857C891.37 352.724 904.2 349.158 920.689 349.158C933.009 349.158 946.117 350.547 960.012 353.326V349.297C960.012 343.09 958.066 338.505 954.176 335.541C950.285 332.576 943.43 331.094 933.611 331.094C928.146 331.094 922.032 331.789 915.269 333.179C908.6 334.475 901.977 336.235 895.4 338.459C893.825 338.922 892.482 339.153 891.37 339.153C889.054 339.153 886.97 338.32 885.117 336.652C883.357 334.892 881.736 331.974 880.254 327.898C878.864 323.823 878.17 320.488 878.17 317.894C878.17 313.17 880.3 310.02 884.561 308.445C892.806 305.481 901.56 303.258 910.823 301.776C920.086 300.294 928.794 299.552 936.946 299.552ZM924.162 377.782C917.678 377.782 912.722 378.94 909.295 381.256C905.96 383.571 904.292 386.953 904.292 391.399C904.292 395.753 905.913 399.088 909.156 401.403C912.49 403.627 917.261 404.738 923.468 404.738C929.859 404.738 936.158 403.488 942.365 400.987C948.664 398.393 954.546 394.873 960.012 390.426V381.533C947.784 379.032 935.834 377.782 924.162 377.782ZM1118.28 248.696C1121.43 248.696 1123.65 249.391 1124.95 250.781C1126.34 252.078 1127.03 254.301 1127.03 257.45V402.515H1166.08C1168.3 402.515 1170.01 402.932 1171.22 403.766C1172.42 404.507 1173.3 405.896 1173.86 407.934C1174.51 409.972 1174.83 412.936 1174.83 416.827C1174.83 420.718 1174.51 423.682 1173.86 425.72C1173.3 427.758 1172.42 429.147 1171.22 429.888C1170.01 430.629 1168.3 431 1166.08 431H1054.36C1052.14 431 1050.42 430.629 1049.22 429.888C1048.01 429.147 1047.09 427.758 1046.44 425.72C1045.88 423.682 1045.61 420.718 1045.61 416.827C1045.61 412.936 1045.88 409.972 1046.44 407.934C1047.09 405.896 1048.01 404.507 1049.22 403.766C1050.42 402.932 1052.14 402.515 1054.36 402.515H1092.29V277.181H1059.92C1057.69 277.181 1055.98 276.811 1054.78 276.07C1053.57 275.329 1052.65 273.939 1052 271.901C1051.44 269.863 1051.16 266.899 1051.16 263.008C1051.16 259.118 1051.44 256.153 1052 254.116C1052.65 252.078 1053.57 250.688 1054.78 249.947C1055.98 249.113 1057.69 248.696 1059.92 248.696H1118.28ZM1455.37 266.065C1474.92 266.065 1489.92 270.373 1500.39 278.988C1510.86 287.603 1516.09 300.108 1516.09 316.504C1516.09 337.903 1504.61 351.381 1481.63 356.939C1486.64 358.884 1490.62 361.756 1493.58 365.554C1495.53 368.055 1497.29 370.695 1498.86 373.474C1500.53 376.161 1502.43 379.588 1504.56 383.757C1506.78 388.203 1508.5 391.399 1509.7 393.344C1511.55 396.401 1513.41 398.717 1515.26 400.292C1517.11 401.774 1519.2 402.515 1521.51 402.515H1524.15C1526.38 402.515 1528.09 402.932 1529.29 403.766C1530.5 404.507 1531.38 405.896 1531.93 407.934C1532.58 409.972 1532.91 412.936 1532.91 416.827C1532.91 420.718 1532.58 423.682 1531.93 425.72C1531.38 427.758 1530.5 429.147 1529.29 429.888C1528.09 430.629 1526.38 431 1524.15 431H1510.67C1503.36 431 1497.43 429.518 1492.89 426.554C1488.35 423.589 1484.18 418.633 1480.38 411.686C1478.53 408.444 1476.31 403.997 1473.71 398.347C1471.86 394.085 1470.1 390.426 1468.43 387.369C1466.77 384.22 1464.91 381.163 1462.87 378.199C1460 374.215 1456.81 371.344 1453.29 369.584C1449.77 367.824 1445.55 366.944 1440.64 366.944H1431.75V402.515H1445.23C1447.45 402.515 1449.17 402.932 1450.37 403.766C1451.57 404.507 1452.45 405.896 1453.01 407.934C1453.66 409.972 1453.98 412.936 1453.98 416.827C1453.98 420.718 1453.66 423.682 1453.01 425.72C1452.45 427.758 1451.57 429.147 1450.37 429.888C1449.17 430.629 1447.45 431 1445.23 431H1382.14C1379.92 431 1378.21 430.629 1377 429.888C1375.8 429.147 1374.87 427.758 1374.22 425.72C1373.67 423.682 1373.39 420.718 1373.39 416.827C1373.39 412.936 1373.67 409.972 1374.22 407.934C1374.87 405.896 1375.8 404.507 1377 403.766C1378.21 402.932 1379.92 402.515 1382.14 402.515H1397.01V294.55H1382.14C1379.92 294.55 1378.21 294.18 1377 293.439C1375.8 292.698 1374.87 291.308 1374.22 289.27C1373.67 287.232 1373.39 284.268 1373.39 280.377C1373.39 276.487 1373.67 273.522 1374.22 271.484C1374.87 269.446 1375.8 268.057 1377 267.316C1378.21 266.482 1379.92 266.065 1382.14 266.065H1455.37ZM1431.75 337.069H1452.45C1461.9 337.069 1468.9 335.402 1473.44 332.067C1477.97 328.64 1480.24 323.452 1480.24 316.504C1480.24 309.557 1477.97 304.416 1473.44 301.081C1468.9 297.653 1461.9 295.94 1452.45 295.94H1431.75V337.069ZM1622.95 299.552C1637.03 299.552 1649.02 302.609 1658.93 308.723C1668.85 314.744 1676.3 323.174 1681.31 334.012C1686.4 344.758 1688.95 357.078 1688.95 370.973C1688.95 374.123 1688.25 376.346 1686.86 377.643C1685.57 378.94 1683.34 379.588 1680.19 379.588H1590.99C1592.75 386.999 1596.5 392.696 1602.24 396.679C1608.08 400.57 1615.44 402.515 1624.34 402.515C1638.69 402.515 1654.26 399.968 1671.02 394.873C1672.13 394.502 1673.25 394.317 1674.36 394.317C1676.4 394.317 1678.16 395.243 1679.64 397.096C1681.12 398.949 1682.46 402.098 1683.67 406.545C1684.59 409.972 1685.06 412.89 1685.06 415.299C1685.06 417.707 1684.5 419.606 1683.39 420.996C1682.37 422.292 1680.66 423.358 1678.25 424.191C1668.99 427.248 1659.54 429.657 1649.9 431.417C1640.27 433.177 1630.82 434.057 1621.56 434.057C1607.48 434.057 1595.34 431.185 1585.15 425.442C1574.96 419.699 1567.18 411.778 1561.81 401.681C1556.53 391.492 1553.89 379.866 1553.89 366.805C1553.89 353.836 1556.67 342.257 1562.22 332.067C1567.78 321.877 1575.8 313.911 1586.26 308.167C1596.73 302.424 1608.96 299.552 1622.95 299.552ZM1622.95 331.094C1605.99 331.094 1595.53 338.227 1591.54 352.493H1652.68C1651.11 345.73 1647.73 340.497 1642.54 336.791C1637.44 332.993 1630.91 331.094 1622.95 331.094ZM1862.64 302.609C1864.86 302.609 1866.57 303.026 1867.78 303.86C1868.98 304.601 1869.86 305.991 1870.42 308.028C1871.07 310.066 1871.39 313.031 1871.39 316.921C1871.39 320.812 1871.07 323.776 1870.42 325.814C1869.86 327.852 1868.98 329.242 1867.78 329.983C1866.57 330.724 1864.86 331.094 1862.64 331.094H1853.19L1812.48 425.025C1811.09 428.267 1808.82 430.583 1805.67 431.973C1802.52 433.362 1797.7 434.057 1791.22 434.057C1784.73 434.057 1779.96 433.362 1776.9 431.973C1773.85 430.583 1771.62 428.267 1770.23 425.025L1729.8 331.094H1720.63C1718.41 331.094 1716.69 330.724 1715.49 329.983C1714.28 329.242 1713.36 327.852 1712.71 325.814C1712.15 323.776 1711.87 320.812 1711.87 316.921C1711.87 313.031 1712.15 310.066 1712.71 308.028C1713.36 305.991 1714.28 304.601 1715.49 303.86C1716.69 303.026 1718.41 302.609 1720.63 302.609H1776.76C1778.99 302.609 1780.7 303.026 1781.91 303.86C1783.11 304.601 1783.99 305.991 1784.55 308.028C1785.19 310.066 1785.52 313.031 1785.52 316.921C1785.52 320.812 1785.19 323.776 1784.55 325.814C1783.99 327.852 1783.11 329.242 1781.91 329.983C1780.7 330.724 1778.99 331.094 1776.76 331.094H1767.46L1792.05 392.372L1816.92 331.094H1809.28C1807.06 331.094 1805.34 330.724 1804.14 329.983C1802.93 329.242 1802.01 327.852 1801.36 325.814C1800.8 323.776 1800.53 320.812 1800.53 316.921C1800.53 313.031 1800.8 310.066 1801.36 308.028C1802.01 305.991 1802.93 304.601 1804.14 303.86C1805.34 303.026 1807.06 302.609 1809.28 302.609H1862.64ZM1962.26 299.552C1976.34 299.552 1988.66 302.424 1999.23 308.167C2009.79 313.911 2017.89 321.877 2023.54 332.067C2029.28 342.257 2032.16 353.836 2032.16 366.805C2032.16 379.773 2029.28 391.353 2023.54 401.542C2017.89 411.732 2009.79 419.699 1999.23 425.442C1988.66 431.185 1976.34 434.057 1962.26 434.057C1948.18 434.057 1935.86 431.185 1925.3 425.442C1914.74 419.699 1906.59 411.732 1900.85 401.542C1895.2 391.353 1892.37 379.773 1892.37 366.805C1892.37 353.836 1895.2 342.257 1900.85 332.067C1906.59 321.877 1914.74 313.911 1925.3 308.167C1935.86 302.424 1948.18 299.552 1962.26 299.552ZM1962.26 331.094C1955.59 331.094 1949.81 332.576 1944.9 335.541C1939.99 338.412 1936.19 342.535 1933.5 347.907C1930.91 353.28 1929.61 359.579 1929.61 366.805C1929.61 374.03 1930.91 380.329 1933.5 385.702C1936.19 391.075 1939.99 395.243 1944.9 398.208C1949.81 401.079 1955.59 402.515 1962.26 402.515C1968.93 402.515 1974.72 401.079 1979.63 398.208C1984.54 395.243 1988.29 391.075 1990.89 385.702C1993.57 380.329 1994.92 374.03 1994.92 366.805C1994.92 359.579 1993.57 353.28 1990.89 347.907C1988.29 342.535 1984.54 338.412 1979.63 335.541C1974.72 332.576 1968.93 331.094 1962.26 331.094ZM2142.07 248.696C2145.22 248.696 2147.44 249.391 2148.74 250.781C2150.13 252.078 2150.82 254.301 2150.82 257.45V402.515H2189.87C2192.09 402.515 2193.8 402.932 2195.01 403.766C2196.21 404.507 2197.09 405.896 2197.65 407.934C2198.3 409.972 2198.62 412.936 2198.62 416.827C2198.62 420.718 2198.3 423.682 2197.65 425.72C2197.09 427.758 2196.21 429.147 2195.01 429.888C2193.8 430.629 2192.09 431 2189.87 431H2078.15C2075.93 431 2074.21 430.629 2073.01 429.888C2071.8 429.147 2070.88 427.758 2070.23 425.72C2069.67 423.682 2069.4 420.718 2069.4 416.827C2069.4 412.936 2069.67 409.972 2070.23 407.934C2070.88 405.896 2071.8 404.507 2073.01 403.766C2074.21 402.932 2075.93 402.515 2078.15 402.515H2116.08V277.181H2083.71C2081.48 277.181 2079.77 276.811 2078.57 276.07C2077.36 275.329 2076.44 273.939 2075.79 271.901C2075.23 269.863 2074.95 266.899 2074.95 263.008C2074.95 259.118 2075.23 256.153 2075.79 254.116C2076.44 252.078 2077.36 250.688 2078.57 249.947C2079.77 249.113 2081.48 248.696 2083.71 248.696H2142.07ZM2352.86 302.609C2356 302.609 2358.23 303.304 2359.52 304.694C2360.91 305.991 2361.61 308.214 2361.61 311.363V402.515H2372.31C2374.53 402.515 2376.25 402.886 2377.45 403.627C2378.65 404.368 2379.53 405.757 2380.09 407.795C2380.74 409.833 2381.06 412.797 2381.06 416.688C2381.06 420.579 2380.74 423.543 2380.09 425.581C2379.53 427.619 2378.65 429.055 2377.45 429.888C2376.25 430.629 2374.53 431 2372.31 431H2341.18C2338.03 431 2335.76 430.352 2334.37 429.055C2333.08 427.665 2332.43 425.396 2332.43 422.246V402.098C2320.2 423.404 2304.92 434.057 2286.58 434.057C2278.15 434.057 2270.74 432.204 2264.34 428.499C2258.04 424.794 2253.18 419.56 2249.75 412.797C2246.33 405.943 2244.61 397.93 2244.61 388.759V331.094H2233.91C2231.69 331.094 2229.98 330.724 2228.77 329.983C2227.57 329.149 2226.64 327.713 2225.99 325.675C2225.44 323.637 2225.16 320.673 2225.16 316.782C2225.16 312.892 2225.44 309.927 2225.99 307.89C2226.64 305.852 2227.57 304.462 2228.77 303.721C2229.98 302.98 2231.69 302.609 2233.91 302.609H2270.6C2273.75 302.609 2275.97 303.304 2277.27 304.694C2278.66 305.991 2279.35 308.214 2279.35 311.363V380.561C2279.35 387.786 2280.6 393.252 2283.1 396.957C2285.6 400.662 2289.77 402.515 2295.61 402.515C2300.98 402.515 2306.08 400.292 2310.89 395.845C2315.71 391.306 2319.55 385.285 2322.43 377.782C2325.39 370.278 2326.87 362.266 2326.87 353.743V331.094H2312C2309.78 331.094 2308.07 330.724 2306.86 329.983C2305.66 329.149 2304.73 327.713 2304.08 325.675C2303.53 323.637 2303.25 320.673 2303.25 316.782C2303.25 312.892 2303.53 309.927 2304.08 307.89C2304.73 305.852 2305.66 304.462 2306.86 303.721C2308.07 302.98 2309.78 302.609 2312 302.609H2352.86ZM2456.23 263.008C2460.59 263.008 2463.92 263.333 2466.24 263.981C2468.65 264.537 2470.32 265.417 2471.24 266.621C2472.17 267.825 2472.63 269.539 2472.63 271.762V310.946H2524.18C2527.42 310.946 2529.69 312.012 2530.99 314.142C2532.29 316.273 2532.94 320.21 2532.94 325.953C2532.94 331.696 2532.29 335.633 2530.99 337.764C2529.69 339.802 2527.42 340.821 2524.18 340.821H2472.63V379.449C2472.63 394.826 2478.61 402.515 2490.56 402.515C2494.82 402.515 2499.77 401.589 2505.42 399.736C2511.17 397.791 2517.84 395.104 2525.43 391.677C2527.47 390.843 2529.09 390.426 2530.3 390.426C2532.24 390.426 2534.05 391.26 2535.71 392.927C2537.38 394.502 2538.96 397.142 2540.44 400.848C2542.11 405.016 2542.94 408.397 2542.94 410.991C2542.94 413.029 2542.43 414.743 2541.41 416.132C2540.49 417.429 2539.05 418.587 2537.1 419.606C2518.02 429.24 2501.49 434.057 2487.5 434.057C2471.38 434.057 2459.06 429.564 2450.54 420.579C2442.11 411.593 2437.89 398.485 2437.89 381.256V340.821H2411.08C2407.83 340.821 2405.56 339.802 2404.27 337.764C2402.97 335.633 2402.32 331.696 2402.32 325.953C2402.32 320.21 2402.97 316.273 2404.27 314.142C2405.56 312.012 2407.83 310.946 2411.08 310.946H2437.89V271.762C2437.89 268.613 2439.28 266.39 2442.06 265.093C2444.93 263.703 2449.66 263.008 2456.23 263.008ZM2655.35 302.609C2658.5 302.609 2660.72 303.304 2662.02 304.694C2663.41 305.991 2664.11 308.214 2664.11 311.363V402.515H2703.15C2705.37 402.515 2707.09 402.932 2708.29 403.766C2709.5 404.507 2710.38 405.896 2710.93 407.934C2711.58 409.972 2711.9 412.936 2711.9 416.827C2711.9 420.718 2711.58 423.682 2710.93 425.72C2710.38 427.758 2709.5 429.147 2708.29 429.888C2707.09 430.629 2705.37 431 2703.15 431H2591.43C2589.21 431 2587.5 430.629 2586.29 429.888C2585.09 429.147 2584.16 427.758 2583.51 425.72C2582.96 423.682 2582.68 420.718 2582.68 416.827C2582.68 412.936 2582.96 409.972 2583.51 407.934C2584.16 405.896 2585.09 404.507 2586.29 403.766C2587.5 402.932 2589.21 402.515 2591.43 402.515H2629.37V331.094H2599.77C2597.55 331.094 2595.83 330.724 2594.63 329.983C2593.43 329.242 2592.5 327.852 2591.85 325.814C2591.3 323.776 2591.02 320.812 2591.02 316.921C2591.02 313.031 2591.3 310.066 2591.85 308.028C2592.5 305.991 2593.43 304.601 2594.63 303.86C2595.83 303.026 2597.55 302.609 2599.77 302.609H2655.35ZM2646.32 241.61C2652.9 241.61 2657.48 242.305 2660.08 243.694C2662.76 244.991 2664.11 247.214 2664.11 250.364V273.152C2664.11 276.301 2662.85 278.571 2660.35 279.96C2657.95 281.257 2653.5 281.906 2647.01 281.906C2640.53 281.906 2635.94 281.257 2633.26 279.96C2630.66 278.571 2629.37 276.301 2629.37 273.152V250.364C2629.37 247.122 2630.57 244.852 2632.98 243.555C2635.39 242.258 2639.84 241.61 2646.32 241.61ZM2815.42 299.552C2829.5 299.552 2841.82 302.424 2852.38 308.167C2862.94 313.911 2871.05 321.877 2876.7 332.067C2882.44 342.257 2885.32 353.836 2885.32 366.805C2885.32 379.773 2882.44 391.353 2876.7 401.542C2871.05 411.732 2862.94 419.699 2852.38 425.442C2841.82 431.185 2829.5 434.057 2815.42 434.057C2801.34 434.057 2789.02 431.185 2778.46 425.442C2767.9 419.699 2759.75 411.732 2754.01 401.542C2748.36 391.353 2745.53 379.773 2745.53 366.805C2745.53 353.836 2748.36 342.257 2754.01 332.067C2759.75 321.877 2767.9 313.911 2778.46 308.167C2789.02 302.424 2801.34 299.552 2815.42 299.552ZM2815.42 331.094C2808.75 331.094 2802.96 332.576 2798.05 335.541C2793.14 338.412 2789.35 342.535 2786.66 347.907C2784.07 353.28 2782.77 359.579 2782.77 366.805C2782.77 374.03 2784.07 380.329 2786.66 385.702C2789.35 391.075 2793.14 395.243 2798.05 398.208C2802.96 401.079 2808.75 402.515 2815.42 402.515C2822.09 402.515 2827.88 401.079 2832.79 398.208C2837.7 395.243 2841.45 391.075 2844.05 385.702C2846.73 380.329 2848.08 374.03 2848.08 366.805C2848.08 359.579 2846.73 353.28 2844.05 347.907C2841.45 342.535 2837.7 338.412 2832.79 335.541C2827.88 332.576 2822.09 331.094 2815.42 331.094ZM3005.92 299.552C3014.35 299.552 3021.72 301.405 3028.02 305.11C3034.41 308.816 3039.32 314.096 3042.75 320.951C3046.17 327.713 3047.89 335.68 3047.89 344.85V402.515H3058.59C3060.81 402.515 3062.52 402.932 3063.73 403.766C3064.93 404.507 3065.81 405.896 3066.37 407.934C3067.02 409.972 3067.34 412.936 3067.34 416.827C3067.34 420.718 3067.02 423.682 3066.37 425.72C3065.81 427.758 3064.93 429.147 3063.73 429.888C3062.52 430.629 3060.81 431 3058.59 431H3006.62C3004.4 431 3002.68 430.629 3001.48 429.888C3000.27 429.147 2999.35 427.758 2998.7 425.72C2998.14 423.682 2997.87 420.718 2997.87 416.827C2997.87 412.936 2998.14 409.972 2998.7 407.934C2999.35 405.896 3000.27 404.507 3001.48 403.766C3002.68 402.932 3004.4 402.515 3006.62 402.515H3013.15V353.049C3013.15 345.823 3011.9 340.358 3009.4 336.652C3006.9 332.947 3002.73 331.094 2996.89 331.094C2991.52 331.094 2986.42 333.364 2981.61 337.903C2976.79 342.349 2972.9 348.324 2969.94 355.828C2967.06 363.331 2965.63 371.344 2965.63 379.866V402.515H2972.16C2974.38 402.515 2976.1 402.932 2977.3 403.766C2978.5 404.507 2979.38 405.896 2979.94 407.934C2980.59 409.972 2980.91 412.936 2980.91 416.827C2980.91 420.718 2980.59 423.682 2979.94 425.72C2979.38 427.758 2978.5 429.147 2977.3 429.888C2976.1 430.629 2974.38 431 2972.16 431H2920.19C2917.97 431 2916.25 430.629 2915.05 429.888C2913.85 429.147 2912.92 427.758 2912.27 425.72C2911.72 423.682 2911.44 420.718 2911.44 416.827C2911.44 412.936 2911.72 409.972 2912.27 407.934C2912.92 405.896 2913.85 404.507 2915.05 403.766C2916.25 402.932 2917.97 402.515 2920.19 402.515H2930.89V331.094H2917.41C2915.19 331.094 2913.48 330.724 2912.27 329.983C2911.07 329.242 2910.14 327.852 2909.49 325.814C2908.94 323.776 2908.66 320.812 2908.66 316.921C2908.66 313.031 2908.94 310.066 2909.49 308.028C2910.14 305.991 2911.07 304.601 2912.27 303.86C2913.48 303.026 2915.19 302.609 2917.41 302.609H2951.32C2954.47 302.609 2956.69 303.304 2957.99 304.694C2959.38 305.991 2960.07 308.214 2960.07 311.363V331.511C2972.3 310.205 2987.58 299.552 3005.92 299.552Z" fill="white"/>
</svg>
